<?xml version="1.0" encoding="UTF-8"?>
<!DOCTYPE svg PUBLIC "-//W3C//DTD SVG 1.1//EN" "http://www.w3.org/Graphics/SVG/1.1/DTD/svg11.dtd">
<svg xmlns="http://www.w3.org/2000/svg" version="1.1" width="500px" height="500px" style="shape-rendering:geometricPrecision; text-rendering:geometricPrecision; image-rendering:optimizeQuality; fill-rule:evenodd; clip-rule:evenodd" xmlns:xlink="http://www.w3.org/1999/xlink">
<g><path style="opacity:0.004" fill="#fefffe" d="M 276.5,-0.5 C 276.833,-0.5 277.167,-0.5 277.5,-0.5C 277.315,0.170143 276.981,0.170143 276.5,-0.5 Z"/></g>
<g><path style="opacity:0.004" fill="#fefffe" d="M 357.5,4.5 C 358.833,5.16667 358.833,5.16667 357.5,4.5 Z"/></g>
<g><path style="opacity:0.004" fill="#fefffe" d="M 253.5,8.5 C 254.833,9.16667 254.833,9.16667 253.5,8.5 Z"/></g>
<g><path style="opacity:0.004" fill="#fefffe" d="M 119.5,10.5 C 120.833,11.1667 120.833,11.1667 119.5,10.5 Z"/></g>
<g><path style="opacity:0.004" fill="#fefffe" d="M 152.5,16.5 C 153.833,17.1667 153.833,17.1667 152.5,16.5 Z"/></g>
<g><path style="opacity:0.004" fill="#fefffe" d="M 333.5,18.5 C 334.833,19.1667 334.833,19.1667 333.5,18.5 Z"/></g>
<g><path style="opacity:0.973" fill="#5eaed1" d="M 263.5,15.5 C 276.323,16.0195 288.99,17.6862 301.5,20.5C 301.265,21.0967 300.765,21.4301 300,21.5C 292.139,20.3436 284.306,19.0102 276.5,17.5C 274.314,17.7107 272.147,18.0441 270,18.5C 267.676,17.5842 265.509,16.5842 263.5,15.5 Z"/></g>
<g><path style="opacity:1" fill="#2fa2d7" d="M 263.5,15.5 C 265.509,16.5842 267.676,17.5842 270,18.5C 272.147,18.0441 274.314,17.7107 276.5,17.5C 284.306,19.0102 292.139,20.3436 300,21.5C 300.765,21.4301 301.265,21.0967 301.5,20.5C 308.064,22.0524 314.398,24.0524 320.5,26.5C 320.25,27.9221 319.417,28.9221 318,29.5C 317.444,27.4049 316.944,27.2382 316.5,29C 317.272,30.221 318.272,31.221 319.5,32C 314.879,31.518 310.212,31.018 305.5,30.5C 275.795,23.7471 245.795,22.0805 215.5,25.5C 212.327,25.5988 209.327,24.9322 206.5,23.5C 204.792,23.7028 203.459,24.5362 202.5,26C 198.107,26.0167 193.94,26.85 190,28.5C 189.186,26.7183 188.019,25.2183 186.5,24C 196.235,22.6798 205.569,20.5132 214.5,17.5C 219.919,15.9561 225.586,15.1228 231.5,15C 242.341,14.1745 253.008,14.3412 263.5,15.5 Z"/></g>
<g><path style="opacity:0.004" fill="#fefffe" d="M 41.5,23.5 C 42.8333,24.1667 42.8333,24.1667 41.5,23.5 Z"/></g>
<g><path style="opacity:0.004" fill="#fefffe" d="M 394.5,23.5 C 395.833,24.1667 395.833,24.1667 394.5,23.5 Z"/></g>
<g><path style="opacity:0.004" fill="#fefffe" d="M 85.5,30.5 C 86.8333,31.1667 86.8333,31.1667 85.5,30.5 Z"/></g>
<g><path style="opacity:1" fill="#31a2d4" d="M 214.5,17.5 C 205.569,20.5132 196.235,22.6798 186.5,24C 188.019,25.2183 189.186,26.7183 190,28.5C 193.94,26.85 198.107,26.0167 202.5,26C 203.459,24.5362 204.792,23.7028 206.5,23.5C 209.327,24.9322 212.327,25.5988 215.5,25.5C 138.89,39.4369 82.2234,80.7703 45.5,149.5C 43.2812,151.575 41.2812,153.909 39.5,156.5C 38.1779,156.33 37.0113,156.663 36,157.5C 34.9737,162.553 32.6404,166.887 29,170.5C 26.8149,177.361 24.3149,184.027 21.5,190.5C 30.4214,153.669 47.4214,121.335 72.5,93.5C 71.7016,96.4886 70.2016,99.1552 68,101.5C 67.5065,103.134 67.3398,104.801 67.5,106.5C 68.8333,106.5 70.1667,106.5 71.5,106.5C 71.1966,103.412 72.5299,101.746 75.5,101.5C 75.5,100.5 75.5,99.5 75.5,98.5C 77.9732,98.264 79.6399,96.9307 80.5,94.5C 80.1667,93.8333 79.8333,93.1667 79.5,92.5C 84.25,91.105 88.25,88.4384 91.5,84.5C 92.7111,83.2798 92.7111,82.1131 91.5,81C 95.3231,80.1824 95.4898,79.0157 92,77.5C 88.5541,80.7884 84.7207,83.4551 80.5,85.5C 110.608,54.4657 146.275,33.2991 187.5,22C 196.374,19.658 205.374,18.158 214.5,17.5 Z"/></g>
<g><path style="opacity:0.004" fill="#fefffe" d="M 9.5,45.5 C 10.8333,46.1667 10.8333,46.1667 9.5,45.5 Z"/></g>
<g><path style="opacity:0.004" fill="#fefffe" d="M 54.5,49.5 C 55.8333,50.1667 55.8333,50.1667 54.5,49.5 Z"/></g>
<g><path style="opacity:0.004" fill="#fefffe" d="M 407.5,49.5 C 408.833,50.1667 408.833,50.1667 407.5,49.5 Z"/></g>
<g><path style="opacity:1" fill="#2ca1d5" d="M 320.5,26.5 C 377.602,45.7607 421.436,81.4274 452,133.5C 454.452,138.068 456.618,142.735 458.5,147.5C 459.442,153.363 460.942,159.03 463,164.5C 466.314,167.764 466.314,171.098 463,174.5C 460.311,168.459 457.644,162.459 455,156.5C 454.845,154.144 454.845,151.811 455,149.5C 454,150.833 453,150.833 452,149.5C 449.959,146.081 448.459,142.414 447.5,138.5C 446.378,137.37 445.044,136.703 443.5,136.5C 411.139,83.479 365.139,48.1456 305.5,30.5C 310.212,31.018 314.879,31.518 319.5,32C 318.272,31.221 317.272,30.221 316.5,29C 316.944,27.2382 317.444,27.4049 318,29.5C 319.417,28.9221 320.25,27.9221 320.5,26.5 Z"/></g>
<g><path style="opacity:1" fill="#119fd9" d="M 72.5,93.5 C 74.8333,90.5 77.5,87.8333 80.5,85.5C 84.7207,83.4551 88.5541,80.7884 92,77.5C 95.4898,79.0157 95.3231,80.1824 91.5,81C 92.7111,82.1131 92.7111,83.2798 91.5,84.5C 88.25,88.4384 84.25,91.105 79.5,92.5C 79.8333,93.1667 80.1667,93.8333 80.5,94.5C 79.6399,96.9307 77.9732,98.264 75.5,98.5C 75.5,99.5 75.5,100.5 75.5,101.5C 72.5299,101.746 71.1966,103.412 71.5,106.5C 70.1667,106.5 68.8333,106.5 67.5,106.5C 67.3398,104.801 67.5065,103.134 68,101.5C 70.2016,99.1552 71.7016,96.4886 72.5,93.5 Z"/></g>
<g><path style="opacity:0.004" fill="#fefffe" d="M 458.5,121.5 C 459.833,122.167 459.833,122.167 458.5,121.5 Z"/></g>
<g><path style="opacity:0.004" fill="#fefffe" d="M 496.5,142.5 C 497.833,143.167 497.833,143.167 496.5,142.5 Z"/></g>
<g><path style="opacity:0.984" fill="#544f70" d="M 399.5,208.5 C 397.032,206.158 396.866,203.492 399,200.5C 406.178,198.466 408.678,201.133 406.5,208.5C 404.002,211.068 401.669,211.068 399.5,208.5 Z"/></g>
<g><path style="opacity:0.878" fill="#676382" d="M 359.5,207.5 C 359.28,203.074 356.946,201.074 352.5,201.5C 352.192,203.924 352.526,206.257 353.5,208.5C 354.736,209.246 356.07,209.579 357.5,209.5C 353.447,211.126 351.113,209.626 350.5,205C 350.927,199.911 353.594,198.244 358.5,200C 360.646,202.357 360.979,204.857 359.5,207.5 Z"/></g>
<g><path style="opacity:1" fill="#292458" d="M 359.5,207.5 C 359.167,208.5 358.5,209.167 357.5,209.5C 356.07,209.579 354.736,209.246 353.5,208.5C 352.526,206.257 352.192,203.924 352.5,201.5C 356.946,201.074 359.28,203.074 359.5,207.5 Z"/></g>
<g><path style="opacity:1" fill="#282359" d="M 399.5,208.5 C 399.338,206.473 399.505,204.473 400,202.5C 401.458,201.253 402.958,201.253 404.5,202.5C 405.466,204.396 405.799,206.396 405.5,208.5C 403.5,208.5 401.5,208.5 399.5,208.5 Z"/></g>
<g><path style="opacity:1" fill="#04a0dd" d="M 38.5,220.5 C 38.5919,216.316 40.2586,212.983 43.5,210.5C 48.9628,208.716 54.6295,208.216 60.5,209C 62.3821,211.108 64.7154,212.441 67.5,213C 69.0412,214.579 70.2078,216.413 71,218.5C 71.6667,241.833 71.6667,265.167 71,288.5C 60.9105,289.652 50.7438,289.819 40.5,289C 40,288.5 39.5,288 39,287.5C 38.5,265.169 38.3334,242.836 38.5,220.5 Z"/></g>
<g><path style="opacity:1" fill="#02a0de" d="M 179.5,238.5 C 179.5,239.167 179.167,239.5 178.5,239.5C 175.927,240.493 173.26,241.326 170.5,242C 158.505,242.5 146.505,242.667 134.5,242.5C 134.168,232.81 134.502,223.144 135.5,213.5C 136.646,212.855 137.646,212.022 138.5,211C 150.895,210.197 163.228,210.697 175.5,212.5C 175.5,213.833 175.5,215.167 175.5,216.5C 176.93,216.421 178.264,216.754 179.5,217.5C 181.088,221.075 181.922,224.741 182,228.5C 181.092,226.561 179.592,225.561 177.5,225.5C 177.201,227.604 177.534,229.604 178.5,231.5C 180.133,230.256 181.133,230.756 181.5,233C 180.144,234.567 179.477,236.4 179.5,238.5 Z"/></g>
<g><path style="opacity:0.898" fill="#52a7cb" d="M 45.5,149.5 C 25.1419,192.669 18.4753,238.002 25.5,285.5C 24.7784,285.918 24.2784,286.584 24,287.5C 19.5744,254.893 20.9078,222.56 28,190.5C 31.4226,178.967 35.256,167.633 39.5,156.5C 41.2812,153.909 43.2812,151.575 45.5,149.5 Z"/></g>
<g><path style="opacity:0.36" fill="#777494" d="M 335.5,212.5 C 328.833,212.5 322.167,212.5 315.5,212.5C 315.737,213.791 315.404,214.791 314.5,215.5C 314.5,214.167 314.5,212.833 314.5,211.5C 321.687,211.175 328.687,211.509 335.5,212.5 Z"/></g>
<g><path style="opacity:0.016" fill="#7b7981" d="M 428.5,212.5 C 424.167,212.5 419.833,212.5 415.5,212.5C 415.5,225.5 415.5,238.5 415.5,251.5C 414.504,238.344 414.171,225.01 414.5,211.5C 419.363,211.181 424.03,211.514 428.5,212.5 Z"/></g>
<g><path style="opacity:1" fill="#342d60" d="M 368.5,212.5 C 371.167,212.5 373.833,212.5 376.5,212.5C 376.5,222.833 376.5,233.167 376.5,243.5C 381.5,243.5 386.5,243.5 391.5,243.5C 392.477,246.287 392.81,249.287 392.5,252.5C 384.248,252.816 376.081,252.482 368,251.5C 368.035,238.557 368.202,225.557 368.5,212.5 Z"/></g>
<g><path style="opacity:1" fill="#423c65" d="M 397.5,211.5 C 400.5,211.5 403.5,211.5 406.5,211.5C 406.5,225.167 406.5,238.833 406.5,252.5C 403.5,252.5 400.5,252.5 397.5,252.5C 397.5,238.833 397.5,225.167 397.5,211.5 Z"/></g>
<g><path style="opacity:1" fill="#292459" d="M 196.5,251.5 C 196.429,239.321 196.429,227.321 196.5,215.5C 203.893,211.346 208.559,213.346 210.5,221.5C 209.012,223.577 207.012,224.577 204.5,224.5C 204.5,233.5 204.5,242.5 204.5,251.5C 201.833,251.5 199.167,251.5 196.5,251.5 Z"/></g>
<g><path style="opacity:1" fill="#28225a" d="M 399.5,213.5 C 401.167,213.5 402.833,213.5 404.5,213.5C 404.5,225.833 404.5,238.167 404.5,250.5C 402.833,250.5 401.167,250.5 399.5,250.5C 399.786,238.214 399.786,225.881 399.5,213.5 Z"/></g>
<g><path style="opacity:1" fill="#4c476d" d="M 214.5,228.5 C 213.069,227.22 212.402,225.553 212.5,223.5C 210.876,223.36 209.71,224.027 209,225.5C 208.893,228.131 208.727,230.631 208.5,233C 210.727,233.704 211.06,234.871 209.5,236.5C 207.469,233.578 206.302,230.245 206,226.5C 205.5,235.16 205.334,243.827 205.5,252.5C 202.287,252.81 199.287,252.477 196.5,251.5C 199.167,251.5 201.833,251.5 204.5,251.5C 204.5,242.5 204.5,233.5 204.5,224.5C 207.012,224.577 209.012,223.577 210.5,221.5C 208.559,213.346 203.893,211.346 196.5,215.5C 196.5,214.167 196.5,212.833 196.5,211.5C 200.846,211.334 205.179,211.501 209.5,212C 211.853,217.245 213.52,222.745 214.5,228.5 Z"/></g>
<g><path style="opacity:1" fill="#2b255a" d="M 280.5,211.5 C 289.986,212.494 299.652,212.827 309.5,212.5C 309.5,214.833 309.5,217.167 309.5,219.5C 305.833,219.5 302.167,219.5 298.5,219.5C 298.5,230.167 298.5,240.833 298.5,251.5C 295.833,251.5 293.167,251.5 290.5,251.5C 290.784,249.585 290.451,247.919 289.5,246.5C 289.5,237.833 289.5,229.167 289.5,220.5C 286.167,220.5 282.833,220.5 279.5,220.5C 279.19,217.287 279.523,214.287 280.5,211.5 Z"/></g>
<g><path style="opacity:0.286" fill="#8885a1" d="M 280.5,211.5 C 290.5,211.5 300.5,211.5 310.5,211.5C 310.5,214.5 310.5,217.5 310.5,220.5C 306.833,220.5 303.167,220.5 299.5,220.5C 299.5,231.167 299.5,241.833 299.5,252.5C 296.167,252.5 292.833,252.5 289.5,252.5C 289.5,250.5 289.5,248.5 289.5,246.5C 290.451,247.919 290.784,249.585 290.5,251.5C 293.167,251.5 295.833,251.5 298.5,251.5C 298.5,240.833 298.5,230.167 298.5,219.5C 302.167,219.5 305.833,219.5 309.5,219.5C 309.5,217.167 309.5,214.833 309.5,212.5C 299.652,212.827 289.986,212.494 280.5,211.5 Z"/></g>
<g><path style="opacity:1" fill="#362f61" d="M 335.5,212.5 C 342.071,214.292 344.571,218.625 343,225.5C 342.028,227.305 340.861,228.972 339.5,230.5C 347.823,237.731 347.489,244.564 338.5,251C 330.561,252.321 322.561,252.821 314.5,252.5C 314.5,240.167 314.5,227.833 314.5,215.5C 315.404,214.791 315.737,213.791 315.5,212.5C 322.167,212.5 328.833,212.5 335.5,212.5 Z M 324.5,220.5 C 327.249,220.274 329.916,220.607 332.5,221.5C 333.894,223.582 333.561,225.249 331.5,226.5C 329.167,226.5 326.833,226.5 324.5,226.5C 324.5,224.5 324.5,222.5 324.5,220.5 Z M 331.5,236.5 C 335.354,237.21 336.187,239.21 334,242.5C 330.943,243.451 327.777,243.784 324.5,243.5C 324.5,241.167 324.5,238.833 324.5,236.5C 326.833,236.5 329.167,236.5 331.5,236.5 Z"/></g>
<g><path style="opacity:0.913" fill="#3c3563" d="M 273.5,227.5 C 271.61,227.703 270.11,227.037 269,225.5C 267.56,226.93 267.226,228.597 268,230.5C 270.825,231.751 271.492,233.418 270,235.5C 266.354,236.754 262.854,236.754 259.5,235.5C 261.857,235.663 264.19,235.497 266.5,235C 265.714,232.04 264.548,229.206 263,226.5C 262.295,229.476 261.129,232.142 259.5,234.5C 259.442,230.909 260.442,227.742 262.5,225C 260.741,223.236 260.574,221.069 262,218.5C 262.893,217.289 263.726,217.289 264.5,218.5C 265.189,220.444 265.689,222.444 266,224.5C 269.422,220.853 269.255,217.353 265.5,214C 264.056,213.219 262.723,213.386 261.5,214.5C 258.952,218.263 256.952,222.263 255.5,226.5C 255.043,227.298 254.376,227.631 253.5,227.5C 255.558,222.325 257.224,216.992 258.5,211.5C 261.777,211.216 264.943,211.549 268,212.5C 269.939,217.485 271.772,222.485 273.5,227.5 Z"/></g>
<g><path style="opacity:0.461" fill="#6c6a88" d="M 444.5,212.5 C 448.634,211.515 452.968,211.182 457.5,211.5C 457.5,225.167 457.5,238.833 457.5,252.5C 454.5,252.5 451.5,252.5 448.5,252.5C 448.827,243.318 448.493,234.318 447.5,225.5C 447.369,224.624 447.702,223.957 448.5,223.5C 449.498,232.81 449.832,242.143 449.5,251.5C 451.833,251.5 454.167,251.5 456.5,251.5C 456.5,238.5 456.5,225.5 456.5,212.5C 452.5,212.5 448.5,212.5 444.5,212.5 Z"/></g>
<g><path style="opacity:0.067" fill="#dadaed" d="M 324.5,220.5 C 324.5,222.5 324.5,224.5 324.5,226.5C 326.833,226.5 329.167,226.5 331.5,226.5C 329.052,227.473 326.385,227.806 323.5,227.5C 323.198,224.941 323.532,222.607 324.5,220.5 Z"/></g>
<g><path style="opacity:0.907" fill="#5baed4" d="M 38.5,220.5 C 38.3334,242.836 38.5,265.169 39,287.5C 39.5,288 40,288.5 40.5,289C 50.7438,289.819 60.9105,289.652 71,288.5C 71.6667,265.167 71.6667,241.833 71,218.5C 70.2078,216.413 69.0412,214.579 67.5,213C 64.7154,212.441 62.3821,211.108 60.5,209C 54.6295,208.216 48.9628,208.716 43.5,210.5C 44.9869,209.196 46.6536,208.03 48.5,207C 58.5788,204.079 66.4121,206.913 72,215.5C 73.6278,240.117 73.9612,264.784 73,289.5C 72.5,290 72,290.5 71.5,291C 60.8333,291.667 50.1667,291.667 39.5,291C 39,290.5 38.5,290 38,289.5C 37.1703,266.33 37.337,243.33 38.5,220.5 Z"/></g>
<g><path style="opacity:0.17" fill="#827f99" d="M 368.5,212.5 C 371.287,211.523 374.287,211.19 377.5,211.5C 377.5,221.833 377.5,232.167 377.5,242.5C 382.363,242.181 387.03,242.514 391.5,243.5C 386.5,243.5 381.5,243.5 376.5,243.5C 376.5,233.167 376.5,222.833 376.5,212.5C 373.833,212.5 371.167,212.5 368.5,212.5 Z"/></g>
<g><path style="opacity:0.263" fill="#908eaa" d="M 238.5,251.5 C 235.713,252.477 232.713,252.81 229.5,252.5C 229.826,243.983 229.493,235.65 228.5,227.5C 228.461,226.244 228.961,225.244 230,224.5C 230.5,233.494 230.666,242.494 230.5,251.5C 233.167,251.5 235.833,251.5 238.5,251.5 Z"/></g>
<g><path style="opacity:1" fill="#2e285b" d="M 214.5,228.5 C 213.838,233.357 215.671,237.023 220,239.5C 220.333,237.5 220.667,235.5 221,233.5C 221.667,234.167 222.333,234.833 223,235.5C 222.944,239.849 222.444,244.183 221.5,248.5C 221.67,249.822 221.337,250.989 220.5,252C 218.098,252.814 215.765,252.647 213.5,251.5C 211.902,246.485 210.569,241.485 209.5,236.5C 211.06,234.871 210.727,233.704 208.5,233C 208.727,230.631 208.893,228.131 209,225.5C 209.71,224.027 210.876,223.36 212.5,223.5C 212.402,225.553 213.069,227.22 214.5,228.5 Z"/></g>
<g><path style="opacity:0.004" fill="#fefffe" d="M 496.5,235.5 C 497.833,236.167 497.833,236.167 496.5,235.5 Z"/></g>
<g><path style="opacity:0.937" fill="#39335e" d="M 238.5,251.5 C 235.833,251.5 233.167,251.5 230.5,251.5C 230.666,242.494 230.5,233.494 230,224.5C 228.961,225.244 228.461,226.244 228.5,227.5C 226.919,234.853 224.586,241.853 221.5,248.5C 222.444,244.183 222.944,239.849 223,235.5C 222.333,234.833 221.667,234.167 221,233.5C 220.667,235.5 220.333,237.5 220,239.5C 215.671,237.023 213.838,233.357 214.5,228.5C 215.935,229.79 216.935,231.456 217.5,233.5C 218.086,233.291 218.586,232.957 219,232.5C 220.937,225.584 223.103,218.751 225.5,212C 229.821,211.501 234.154,211.334 238.5,211.5C 238.5,224.833 238.5,238.167 238.5,251.5 Z"/></g>
<g><path style="opacity:1" fill="#29225b" d="M 226.5,212.5 C 230.167,212.5 233.833,212.5 237.5,212.5C 237.5,225.167 237.5,237.833 237.5,250.5C 235.5,250.5 233.5,250.5 231.5,250.5C 231.964,241.458 231.964,232.458 231.5,223.5C 228.365,223.548 226.698,225.215 226.5,228.5C 224.017,223.105 224.017,217.772 226.5,212.5 Z"/></g>
<g><path style="opacity:0.043" fill="#bbb5ec" d="M 331.5,236.5 C 329.167,236.5 326.833,236.5 324.5,236.5C 324.5,238.833 324.5,241.167 324.5,243.5C 323.527,241.052 323.194,238.385 323.5,235.5C 326.385,235.194 329.052,235.527 331.5,236.5 Z"/></g>
<g><path style="opacity:1" fill="#28235b" d="M 259.5,234.5 C 259.5,234.833 259.5,235.167 259.5,235.5C 262.854,236.754 266.354,236.754 270,235.5C 271.492,233.418 270.825,231.751 268,230.5C 267.226,228.597 267.56,226.93 269,225.5C 270.11,227.037 271.61,227.703 273.5,227.5C 272.916,230.983 273.749,233.983 276,236.5C 276.287,238.891 276.787,241.224 277.5,243.5C 283.412,249.615 282.078,251.615 273.5,249.5C 272.526,247.257 272.192,244.924 272.5,242.5C 266.794,242.171 261.128,242.505 255.5,243.5C 254.03,246.796 251.863,249.463 249,251.5C 248.13,250.892 247.63,250.059 247.5,249C 249.046,247.527 250.046,245.694 250.5,243.5C 251.299,238.028 252.299,232.695 253.5,227.5C 254.376,227.631 255.043,227.298 255.5,226.5C 256.952,222.263 258.952,218.263 261.5,214.5C 262.723,213.386 264.056,213.219 265.5,214C 269.255,217.353 269.422,220.853 266,224.5C 265.689,222.444 265.189,220.444 264.5,218.5C 263.726,217.289 262.893,217.289 262,218.5C 260.574,221.069 260.741,223.236 262.5,225C 260.442,227.742 259.442,230.909 259.5,234.5 Z M 259.5,235.5 C 259.5,235.167 259.5,234.833 259.5,234.5C 261.129,232.142 262.295,229.476 263,226.5C 264.548,229.206 265.714,232.04 266.5,235C 264.19,235.497 261.857,235.663 259.5,235.5 Z"/></g>
<g><path style="opacity:1" fill="#2d275b" d="M 428.5,212.5 C 431.143,219.673 433.81,227.006 436.5,234.5C 439.233,227.064 441.9,219.731 444.5,212.5C 448.5,212.5 452.5,212.5 456.5,212.5C 456.5,225.5 456.5,238.5 456.5,251.5C 454.167,251.5 451.833,251.5 449.5,251.5C 449.832,242.143 449.498,232.81 448.5,223.5C 447.702,223.957 447.369,224.624 447.5,225.5C 445.771,234.018 443.438,242.352 440.5,250.5C 437.946,251.388 435.279,251.721 432.5,251.5C 429.721,244.071 427.388,236.404 425.5,228.5C 424.91,227.234 424.41,225.901 424,224.5C 423.185,229.352 423.352,234.019 424.5,238.5C 424.5,243.167 424.5,247.833 424.5,252.5C 421.287,252.81 418.287,252.477 415.5,251.5C 415.5,238.5 415.5,225.5 415.5,212.5C 419.833,212.5 424.167,212.5 428.5,212.5 Z"/></g>
<g><path style="opacity:0.212" fill="#8f8dad" d="M 425.5,228.5 C 424.521,231.625 424.187,234.958 424.5,238.5C 423.352,234.019 423.185,229.352 424,224.5C 424.41,225.901 424.91,227.234 425.5,228.5 Z"/></g>
<g><path style="opacity:1" fill="#4ca8d0" d="M 179.5,238.5 C 179.477,236.4 180.144,234.567 181.5,233C 181.133,230.756 180.133,230.256 178.5,231.5C 177.534,229.604 177.201,227.604 177.5,225.5C 179.592,225.561 181.092,226.561 182,228.5C 181.922,224.741 181.088,221.075 179.5,217.5C 178.264,216.754 176.93,216.421 175.5,216.5C 175.5,215.167 175.5,213.833 175.5,212.5C 163.228,210.697 150.895,210.197 138.5,211C 137.646,212.022 136.646,212.855 135.5,213.5C 134.502,223.144 134.168,232.81 134.5,242.5C 146.505,242.667 158.505,242.5 170.5,242C 173.26,241.326 175.927,240.493 178.5,239.5C 177.106,241.708 175.106,243.208 172.5,244C 159.5,244.667 146.5,244.667 133.5,244C 132.346,232.576 132.18,221.076 133,209.5C 139.256,208.843 145.589,208.51 152,208.5C 159.56,208.406 167.06,208.906 174.5,210C 184.684,216.578 187.184,225.411 182,236.5C 181.292,237.381 180.458,238.047 179.5,238.5 Z"/></g>
<g><path style="opacity:0.933" fill="#443f65" d="M 253.5,227.5 C 252.299,232.695 251.299,238.028 250.5,243.5C 250.046,245.694 249.046,247.527 247.5,249C 247.63,250.059 248.13,250.892 249,251.5C 251.863,249.463 254.03,246.796 255.5,243.5C 261.128,242.505 266.794,242.171 272.5,242.5C 272.192,244.924 272.526,247.257 273.5,249.5C 282.078,251.615 283.412,249.615 277.5,243.5C 276.787,241.224 276.287,238.891 276,236.5C 273.749,233.983 272.916,230.983 273.5,227.5C 277.036,234.578 280.036,241.912 282.5,249.5C 280.012,251.388 277.012,252.055 273.5,251.5C 271.552,249.68 270.552,247.346 270.5,244.5C 265.821,244.334 261.155,244.501 256.5,245C 255.802,247.454 254.802,249.787 253.5,252C 250.183,252.498 246.85,252.665 243.5,252.5C 245.849,243.638 249.183,235.304 253.5,227.5 Z"/></g>
<g><path style="opacity:0.208" fill="#b7b5c5" d="M 359.5,251.5 C 356.713,252.477 353.713,252.81 350.5,252.5C 350.5,238.833 350.5,225.167 350.5,211.5C 353.833,211.5 357.167,211.5 360.5,211.5C 360.829,225.01 360.496,238.344 359.5,251.5 Z"/></g>
<g><path style="opacity:1" fill="#282359" d="M 359.5,251.5 C 356.833,251.5 354.167,251.5 351.5,251.5C 351.5,238.5 351.5,225.5 351.5,212.5C 354.167,212.5 356.833,212.5 359.5,212.5C 359.5,225.5 359.5,238.5 359.5,251.5 Z"/></g>
<g><path style="opacity:1" fill="#46b0d8" d="M 113.5,291.5 C 113.082,290.778 112.416,290.278 111.5,290C 113.764,289.764 115.931,289.264 118,288.5C 118.833,264.826 118.666,241.16 117.5,217.5C 116.5,216.167 115.5,214.833 114.5,213.5C 110.322,212.285 106.489,210.619 103,208.5C 96.0022,210.071 90.5022,213.738 86.5,219.5C 87.1471,242.817 87.8137,266.15 88.5,289.5C 95.9628,290.136 103.296,290.802 110.5,291.5C 102.493,291.666 94.4931,291.5 86.5,291C 85.3333,290.5 84.5,289.667 84,288.5C 83.0621,264.797 83.3955,241.13 85,217.5C 90.1665,207.34 98.3332,203.84 109.5,207C 115.266,209.763 118.766,214.263 120,220.5C 120.667,243.5 120.667,266.5 120,289.5C 118.211,291.229 116.044,291.896 113.5,291.5 Z"/></g>
<g><path style="opacity:1" fill="#02a0de" d="M 113.5,291.5 C 112.5,291.5 111.5,291.5 110.5,291.5C 103.296,290.802 95.9628,290.136 88.5,289.5C 87.8137,266.15 87.1471,242.817 86.5,219.5C 90.5022,213.738 96.0022,210.071 103,208.5C 106.489,210.619 110.322,212.285 114.5,213.5C 115.5,214.833 116.5,216.167 117.5,217.5C 118.666,241.16 118.833,264.826 118,288.5C 115.931,289.264 113.764,289.764 111.5,290C 112.416,290.278 113.082,290.778 113.5,291.5 Z"/></g>
<g><path style="opacity:0.224" fill="#9393a5" d="M 282.5,249.5 C 283.404,250.209 283.737,251.209 283.5,252.5C 279.958,252.813 276.625,252.479 273.5,251.5C 277.012,252.055 280.012,251.388 282.5,249.5 Z"/></g>
<g><path style="opacity:0.22" fill="#9190a2" d="M 440.5,250.5 C 439.666,251.748 438.333,252.415 436.5,252.5C 434.955,252.489 433.622,252.156 432.5,251.5C 435.279,251.721 437.946,251.388 440.5,250.5 Z"/></g>
<g><path style="opacity:1" fill="#02a0de" d="M 175.5,287.5 C 174.833,287.833 174.167,288.167 173.5,288.5C 160.663,288.739 147.663,288.405 134.5,287.5C 134.5,276.833 134.5,266.167 134.5,255.5C 146.505,255.333 158.505,255.5 170.5,256C 172.581,258.363 175.247,259.529 178.5,259.5C 178.137,261.911 179.137,263.411 181.5,264C 179.955,265.688 178.955,267.688 178.5,270C 177.207,270.49 175.873,270.657 174.5,270.5C 173.454,274.779 174.954,277.445 179,278.5C 179.49,279.793 179.657,281.127 179.5,282.5C 176.09,282.384 174.756,284.05 175.5,287.5 Z"/></g>
<g><path style="opacity:1" fill="#1e9fd6" d="M 39.5,156.5 C 35.256,167.633 31.4226,178.967 28,190.5C 20.9078,222.56 19.5744,254.893 24,287.5C 24.2784,286.584 24.7784,285.918 25.5,285.5C 25.5,285.833 25.5,286.167 25.5,286.5C 25.8553,291.849 26.022,297.182 26,302.5C 25.3333,303.833 24.6667,303.833 24,302.5C 23.5412,299.217 22.0412,296.551 19.5,294.5C 18.7837,285.843 17.1171,277.51 14.5,269.5C 12.9804,250.459 13.4804,231.459 16,212.5C 16.9181,204.827 18.7514,197.494 21.5,190.5C 24.3149,184.027 26.8149,177.361 29,170.5C 32.6404,166.887 34.9737,162.553 36,157.5C 37.0113,156.663 38.1779,156.33 39.5,156.5 Z"/></g>
<g><path style="opacity:0.063" fill="#9edceb" d="M 224.5,264.5 C 225.909,267.178 225.743,269.844 224,272.5C 221.619,271.565 219.119,271.232 216.5,271.5C 218.948,270.527 221.615,270.194 224.5,270.5C 224.5,268.5 224.5,266.5 224.5,264.5 Z"/></g>
<g><path style="opacity:0.999" fill="#46a3ce" d="M 310.5,264.5 C 316.362,263.195 318.862,265.528 318,271.5C 319.377,269.246 320.877,267.08 322.5,265C 324.902,264.186 327.235,264.353 329.5,265.5C 327.418,269.747 324.751,273.581 321.5,277C 324.699,280.566 327.533,284.4 330,288.5C 330.617,289.449 330.451,290.282 329.5,291C 327.5,291.667 325.5,291.667 323.5,291C 321.667,288.5 319.833,286 318,283.5C 317.667,285.833 317.333,288.167 317,290.5C 315,291.833 313,291.833 311,290.5C 310.5,281.84 310.334,273.173 310.5,264.5 Z"/></g>
<g><path style="opacity:1" fill="#50aed9" d="M 175.5,287.5 C 174.756,284.05 176.09,282.384 179.5,282.5C 179.657,281.127 179.49,279.793 179,278.5C 174.954,277.445 173.454,274.779 174.5,270.5C 175.873,270.657 177.207,270.49 178.5,270C 178.955,267.688 179.955,265.688 181.5,264C 179.137,263.411 178.137,261.911 178.5,259.5C 175.247,259.529 172.581,258.363 170.5,256C 158.505,255.5 146.505,255.333 134.5,255.5C 134.5,266.167 134.5,276.833 134.5,287.5C 147.663,288.405 160.663,288.739 173.5,288.5C 172.048,289.302 170.382,289.802 168.5,290C 163,290.167 157.5,290.333 152,290.5C 134.824,295.198 128.324,289.031 132.5,272C 132.667,266.5 132.833,261 133,255.5C 133.5,255 134,254.5 134.5,254C 146.167,253.333 157.833,253.333 169.5,254C 179.219,256.053 184.219,262.053 184.5,272C 184.436,278.971 181.436,284.138 175.5,287.5 Z"/></g>
<g><path style="opacity:1" fill="#49a6d3" d="M 224.5,264.5 C 224.5,266.5 224.5,268.5 224.5,270.5C 221.615,270.194 218.948,270.527 216.5,271.5C 218.635,273.369 221.302,274.036 224.5,273.5C 226.167,280.5 223.5,283.167 216.5,281.5C 216.5,282.5 216.5,283.5 216.5,284.5C 219.5,284.5 222.5,284.5 225.5,284.5C 225.756,286.792 225.423,288.959 224.5,291C 220.167,291.667 215.833,291.667 211.5,291C 211,290.5 210.5,290 210,289.5C 209.333,281.5 209.333,273.5 210,265.5C 214.737,264.531 219.57,264.197 224.5,264.5 Z"/></g>
<g><path style="opacity:1" fill="#41a4d0" d="M 377.5,271.5 C 380.48,272.025 383.313,272.025 386,271.5C 387.711,271.439 389.044,272.106 390,273.5C 394.663,270.164 397.996,271.164 400,276.5C 400.667,281.167 400.667,285.833 400,290.5C 398.333,291.833 396.667,291.833 395,290.5C 393.667,274.5 392.333,274.5 391,290.5C 389.612,291.554 388.112,291.72 386.5,291C 385.861,286.879 385.195,282.713 384.5,278.5C 383.673,282.459 383.173,286.459 383,290.5C 381.612,291.554 380.112,291.72 378.5,291C 377.522,284.59 377.189,278.09 377.5,271.5 Z"/></g>
<g><path style="opacity:0.996" fill="#4ca9d1" d="M 403.5,262.5 C 405.167,262.5 406.833,262.5 408.5,262.5C 408.666,271.839 408.5,281.173 408,290.5C 406.333,291.833 404.667,291.833 403,290.5C 402.195,281.089 402.362,271.756 403.5,262.5 Z"/></g>
<g><path style="opacity:1" fill="#3da4d2" d="M 230.5,264.5 C 234.5,265.833 238.5,265.833 242.5,264.5C 242.556,267.561 241.222,269.728 238.5,271C 240.433,271.251 242.266,271.751 244,272.5C 244.667,279.5 244.667,286.5 244,293.5C 240.982,300.229 236.149,301.895 229.5,298.5C 227.964,292.363 229.964,290.696 235.5,293.5C 236.5,293.167 237.167,292.5 237.5,291.5C 231.219,291.382 227.886,287.882 227.5,281C 227.902,276.272 230.235,272.939 234.5,271C 231.307,269.974 229.974,267.808 230.5,264.5 Z M 234.5,278.5 C 239.161,279.324 239.661,281.324 236,284.5C 233.535,282.946 233.035,280.946 234.5,278.5 Z"/></g>
<g><path style="opacity:0.996" fill="#35a1ce" d="M 290.5,281.5 C 289.527,283.948 289.194,286.615 289.5,289.5C 287.833,289.5 286.167,289.5 284.5,289.5C 284.813,285.958 284.479,282.625 283.5,279.5C 283.44,278.957 283.107,278.624 282.5,278.5C 281.673,282.459 281.173,286.459 281,290.5C 279.612,291.554 278.112,291.72 276.5,291C 275.522,284.59 275.189,278.09 275.5,271.5C 278.48,272.025 281.313,272.025 284,271.5C 285.812,271.493 287.312,272.16 288.5,273.5C 292.502,270.4 295.669,271.067 298,275.5C 298.667,280.5 298.667,285.5 298,290.5C 296.333,291.833 294.667,291.833 293,290.5C 292.827,286.459 292.327,282.459 291.5,278.5C 290.614,279.325 290.281,280.325 290.5,281.5 Z"/></g>
<g><path style="opacity:0.012" fill="#affffe" d="M 252.5,272.5 C 253.167,272.5 253.833,272.5 254.5,272.5C 254.5,273.5 254.5,274.5 254.5,275.5C 253.833,280.5 253.167,285.5 252.5,290.5C 252.5,284.5 252.5,278.5 252.5,272.5 Z"/></g>
<g><path style="opacity:0.988" fill="#3aa1cd" d="M 252.5,272.5 C 252.5,278.5 252.5,284.5 252.5,290.5C 251.081,291.451 249.415,291.784 247.5,291.5C 247.188,284.578 247.521,277.744 248.5,271C 245.29,266.601 246.29,264.268 251.5,264C 254.167,266.333 254.167,268.667 251.5,271C 252.056,271.383 252.389,271.883 252.5,272.5 Z"/></g>
<g><path style="opacity:0.882" fill="#40a5cd" d="M 414.5,271.5 C 416.857,271.337 419.19,271.503 421.5,272C 422.701,272.903 423.535,274.069 424,275.5C 424.804,280.751 424.637,285.918 423.5,291C 420.256,290.911 416.923,290.911 413.5,291C 408.068,286.676 408.401,282.676 414.5,279C 412.833,278 411.5,276.667 410.5,275C 411.731,273.595 413.064,272.429 414.5,271.5 Z M 417.5,283.5 C 419.592,284.286 419.259,285.286 416.5,286.5C 416.167,286.167 415.833,285.833 415.5,285.5C 416.243,284.818 416.909,284.151 417.5,283.5 Z"/></g>
<g><path style="opacity:0.804" fill="#61b0d0" d="M 272.5,272.5 C 273.653,278.319 273.819,284.319 273,290.5C 271.333,291.833 269.667,291.833 268,290.5C 267.833,287.333 267.667,284.167 267.5,281C 267.55,277.397 268.217,274.064 269.5,271C 267.275,268.975 266.941,266.642 268.5,264C 269.833,263.333 271.167,263.333 272.5,264C 273.4,267.094 273.4,269.928 272.5,272.5 Z"/></g>
<g><path style="opacity:0.906" fill="#1492c6" d="M 272.5,272.5 C 272.63,276.868 272.297,281.202 271.5,285.5C 271.304,287.286 270.471,288.619 269,289.5C 268.501,283.843 268.334,278.176 268.5,272.5C 269.833,272.5 271.167,272.5 272.5,272.5 Z"/></g>
<g><path style="opacity:0.961" fill="#58acca" d="M 365.5,272.5 C 366.942,288.171 368.109,288.171 369,272.5C 370.699,271.594 372.533,271.261 374.5,271.5C 374.666,277.842 374.5,284.175 374,290.5C 373.439,291.022 372.772,291.355 372,291.5C 370.047,290.455 368.047,290.455 366,291.5C 364.188,291.507 362.688,290.84 361.5,289.5C 360.543,283.561 360.21,277.561 360.5,271.5C 362.415,271.216 364.081,271.549 365.5,272.5 Z"/></g>
<g><path style="opacity:0.997" fill="#3ba2d2" d="M 427.5,271.5 C 430.935,272.224 434.269,272.39 437.5,272C 439.693,276.673 438.193,279.173 433,279.5C 432.667,283.167 432.333,286.833 432,290.5C 430.333,291.833 428.667,291.833 427,290.5C 426.21,284.085 426.376,277.752 427.5,271.5 Z"/></g>
<g><path style="opacity:0.996" fill="#45a7d4" d="M 254.5,275.5 C 254.5,274.5 254.5,273.5 254.5,272.5C 255.832,271.17 256.665,269.503 257,267.5C 261.152,265.508 262.985,266.841 262.5,271.5C 266.473,272.075 267.473,274.242 265.5,278C 264.552,278.483 263.552,278.649 262.5,278.5C 262.5,280.833 262.5,283.167 262.5,285.5C 263.833,285.5 265.167,285.5 266.5,285.5C 266.787,291.387 264.121,293.054 258.5,290.5C 257.046,285.575 255.712,280.575 254.5,275.5 Z"/></g>
<g><path style="opacity:1" fill="#319fcf" d="M 331.5,271.5 C 333.467,271.261 335.301,271.594 337,272.5C 337.173,276.541 337.673,280.541 338.5,284.5C 339.192,283.975 339.692,283.308 340,282.5C 340.178,279.06 340.345,275.727 340.5,272.5C 342.045,271.548 343.712,271.215 345.5,271.5C 345.5,278.167 345.5,284.833 345.5,291.5C 342.616,290.617 339.783,290.617 337,291.5C 335.188,291.507 333.688,290.84 332.5,289.5C 331.504,283.537 331.171,277.537 331.5,271.5 Z"/></g>
<g><path style="opacity:0.2" fill="#42a6cd" d="M 439.5,271.5 C 441.5,271.5 443.5,271.5 445.5,271.5C 445.666,277.842 445.5,284.175 445,290.5C 443.333,291.833 441.667,291.833 440,290.5C 439.5,284.175 439.334,277.842 439.5,271.5 Z"/></g>
<g><path style="opacity:0.945" fill="#3ca3cf" d="M 348.5,271.5 C 352.167,272.833 355.833,272.833 359.5,271.5C 359.5,273.833 359.5,276.167 359.5,278.5C 357.856,278.286 356.356,278.62 355,279.5C 354.667,283.167 354.333,286.833 354,290.5C 352.612,291.554 351.112,291.72 349.5,291C 348.522,284.59 348.189,278.09 348.5,271.5 Z"/></g>
<g><path style="opacity:1" fill="#129ace" d="M 365.5,272.5 C 365.5,276.833 365.5,281.167 365.5,285.5C 366.833,285.5 368.167,285.5 369.5,285.5C 369.335,281.818 369.501,278.152 370,274.5C 371,273.167 372,273.167 373,274.5C 373.956,278.572 373.456,282.405 371.5,286C 372.815,287.395 372.481,288.395 370.5,289C 368.167,289.667 365.833,289.667 363.5,289C 361.847,283.662 361.18,278.162 361.5,272.5C 362.833,272.5 364.167,272.5 365.5,272.5 Z"/></g>
<g><path style="opacity:0.749" fill="#89ccde" d="M 283.5,279.5 C 284.479,282.625 284.813,285.958 284.5,289.5C 286.167,289.5 287.833,289.5 289.5,289.5C 289.194,286.615 289.527,283.948 290.5,281.5C 290.665,284.518 290.498,287.518 290,290.5C 288.274,291.576 286.441,291.743 284.5,291C 283.54,287.27 283.207,283.437 283.5,279.5 Z"/></g>
<g><path style="opacity:1" fill="#369fce" d="M 443.5,136.5 C 445.044,136.703 446.378,137.37 447.5,138.5C 448.459,142.414 449.959,146.081 452,149.5C 453,150.833 454,150.833 455,149.5C 454.845,151.811 454.845,154.144 455,156.5C 457.644,162.459 460.311,168.459 463,174.5C 466.314,171.098 466.314,167.764 463,164.5C 460.942,159.03 459.442,153.363 458.5,147.5C 467.971,165.583 474.304,184.916 477.5,205.5C 487.028,254.946 481.195,302.612 460,348.5C 458.128,351.596 456.295,354.596 454.5,357.5C 455.013,353.454 455.846,349.454 457,345.5C 462.645,337.856 466.478,329.19 468.5,319.5C 467.5,319.5 466.5,319.5 465.5,319.5C 465.671,322.488 464.338,324.488 461.5,325.5C 460.349,327.773 459.349,330.106 458.5,332.5C 457.817,332.863 457.15,333.196 456.5,333.5C 481.887,265.734 477.554,200.067 443.5,136.5 Z"/></g>
<g><path style="opacity:1" fill="#049fdc" d="M 477.5,205.5 C 479.221,228.802 479.721,252.135 479,275.5C 478.75,278.754 477.75,281.754 476,284.5C 475.71,282.956 475.044,281.623 474,280.5C 473.748,286.53 473.248,292.53 472.5,298.5C 473.972,301.275 473.805,303.941 472,306.5C 469.277,296.595 470.111,286.928 474.5,277.5C 473.978,276.393 473.645,275.226 473.5,274C 475.151,256.327 475.818,238.661 475.5,221C 471.064,209.646 468.564,197.813 468,185.5C 467.088,182.681 465.922,180.014 464.5,177.5C 464.556,176.263 465.056,175.263 466,174.5C 466.667,175.833 467.333,175.833 468,174.5C 470.859,184.996 474.026,195.33 477.5,205.5 Z"/></g>
<g><path style="opacity:1" fill="#069fdd" d="M 454.5,357.5 C 453.167,357.5 451.833,357.5 450.5,357.5C 450.627,360.245 449.46,362.245 447,363.5C 446.503,365.81 446.337,368.143 446.5,370.5C 444.473,370.338 442.473,370.505 440.5,371C 442.053,374.451 441.053,376.951 437.5,378.5C 436.833,378.167 436.167,377.833 435.5,377.5C 437.324,372.522 440.157,368.189 444,364.5C 445.859,359.323 448.526,354.656 452,350.5C 453.274,344.996 454.774,339.662 456.5,334.5C 456.5,334.167 456.5,333.833 456.5,333.5C 457.15,333.196 457.817,332.863 458.5,332.5C 459.349,330.106 460.349,327.773 461.5,325.5C 464.338,324.488 465.671,322.488 465.5,319.5C 466.5,319.5 467.5,319.5 468.5,319.5C 466.478,329.19 462.645,337.856 457,345.5C 455.846,349.454 455.013,353.454 454.5,357.5 Z"/></g>
<g><path style="opacity:0.004" fill="#fefffe" d="M 25.5,344.5 C 26.8333,345.167 26.8333,345.167 25.5,344.5 Z"/></g>
<g><path style="opacity:0.004" fill="#fefffe" d="M 36.5,362.5 C 37.8333,363.167 37.8333,363.167 36.5,362.5 Z"/></g>
<g><path style="opacity:1" fill="#30a1d4" d="M 14.5,269.5 C 17.1171,277.51 18.7837,285.843 19.5,294.5C 22.0412,296.551 23.5412,299.217 24,302.5C 24.6667,303.833 25.3333,303.833 26,302.5C 26.022,297.182 25.8553,291.849 25.5,286.5C 35.6062,339.733 60.9396,384.066 101.5,419.5C 101.5,420.833 101.5,422.167 101.5,423.5C 99.5165,423.383 97.8498,424.05 96.5,425.5C 94.8888,424.68 94.2222,423.346 94.5,421.5C 91.3264,418.744 87.6598,416.744 83.5,415.5C 43.2778,375.259 20.2778,326.592 14.5,269.5 Z"/></g>
<g><path style="opacity:0.004" fill="#fefffe" d="M 471.5,399.5 C 472.833,400.167 472.833,400.167 471.5,399.5 Z"/></g>
<g><path style="opacity:0.004" fill="#fefffe" d="M 443.5,416.5 C 444.833,417.167 444.833,417.167 443.5,416.5 Z"/></g>
<g><path style="opacity:0.004" fill="#fefffe" d="M 52.5,435.5 C 53.8333,436.167 53.8333,436.167 52.5,435.5 Z"/></g>
<g><path style="opacity:0.004" fill="#fefffe" d="M 391.5,435.5 C 392.833,436.167 392.833,436.167 391.5,435.5 Z"/></g>
<g><path style="opacity:0.004" fill="#fefffe" d="M 402.5,435.5 C 403.833,436.167 403.833,436.167 402.5,435.5 Z"/></g>
<g><path style="opacity:0.004" fill="#fefffe" d="M 55.5,442.5 C 56.8333,443.167 56.8333,443.167 55.5,442.5 Z"/></g>
<g><path style="opacity:1" fill="#34a2d3" d="M 456.5,334.5 C 454.774,339.662 453.274,344.996 452,350.5C 448.526,354.656 445.859,359.323 444,364.5C 440.157,368.189 437.324,372.522 435.5,377.5C 436.167,377.833 436.833,378.167 437.5,378.5C 441.053,376.951 442.053,374.451 440.5,371C 442.473,370.505 444.473,370.338 446.5,370.5C 446.337,368.143 446.503,365.81 447,363.5C 449.46,362.245 450.627,360.245 450.5,357.5C 451.833,357.5 453.167,357.5 454.5,357.5C 427.171,409.993 385.838,446.826 330.5,468C 247.498,496.108 171.165,484.108 101.5,432C 95.304,426.634 89.304,421.134 83.5,415.5C 87.6598,416.744 91.3264,418.744 94.5,421.5C 94.2222,423.346 94.8888,424.68 96.5,425.5C 97.8498,424.05 99.5165,423.383 101.5,423.5C 101.5,422.167 101.5,420.833 101.5,419.5C 122.232,436.881 145.232,450.548 170.5,460.5C 160.675,459.005 151.508,455.672 143,450.5C 141.56,451.148 140.06,451.481 138.5,451.5C 138.512,447.554 136.512,445.887 132.5,446.5C 132.5,447.833 132.5,449.167 132.5,450.5C 135.288,450.077 137.288,451.077 138.5,453.5C 145.01,455.271 150.676,458.437 155.5,463C 161.338,464.249 167.004,466.083 172.5,468.5C 178.539,468.64 184.039,470.307 189,473.5C 189.914,472.346 190.747,472.513 191.5,474C 213.767,479.301 236.434,480.967 259.5,479C 258.167,478.333 256.833,477.667 255.5,477C 250.803,476.72 246.137,476.22 241.5,475.5C 239.896,475.939 238.396,476.606 237,477.5C 229.3,475.283 221.467,473.783 213.5,473C 212.584,472.722 211.918,472.222 211.5,471.5C 291.808,481.825 359.642,457.825 415,399.5C 431.933,379.749 445.767,358.083 456.5,334.5 Z"/></g>
<g><path style="opacity:0.004" fill="#fefffe" d="M 116.5,454.5 C 117.833,455.167 117.833,455.167 116.5,454.5 Z"/></g>
<g><path style="opacity:0.004" fill="#fefffe" d="M 116.5,463.5 C 117.833,464.167 117.833,464.167 116.5,463.5 Z"/></g>
<g><path style="opacity:1" fill="#109fdb" d="M 170.5,460.5 C 184.135,464.832 197.802,468.498 211.5,471.5C 211.918,472.222 212.584,472.722 213.5,473C 221.467,473.783 229.3,475.283 237,477.5C 238.396,476.606 239.896,475.939 241.5,475.5C 246.137,476.22 250.803,476.72 255.5,477C 256.833,477.667 258.167,478.333 259.5,479C 236.434,480.967 213.767,479.301 191.5,474C 190.747,472.513 189.914,472.346 189,473.5C 184.039,470.307 178.539,468.64 172.5,468.5C 167.004,466.083 161.338,464.249 155.5,463C 150.676,458.437 145.01,455.271 138.5,453.5C 137.288,451.077 135.288,450.077 132.5,450.5C 132.5,449.167 132.5,447.833 132.5,446.5C 136.512,445.887 138.512,447.554 138.5,451.5C 140.06,451.481 141.56,451.148 143,450.5C 151.508,455.672 160.675,459.005 170.5,460.5 Z"/></g>
<g><path style="opacity:0.004" fill="#fefffe" d="M 59.5,475.5 C 60.8333,476.167 60.8333,476.167 59.5,475.5 Z"/></g>
<g><path style="opacity:0.004" fill="#fefffe" d="M 296.5,489.5 C 297.833,490.167 297.833,490.167 296.5,489.5 Z"/></g>
</svg>
